<svg width="360" height="104" viewBox="0 0 360 104" fill="none" xmlns="http://www.w3.org/2000/svg">
<path d="M358 92.0061C358 97.5484 353.417 102.038 347.749 102.038H12.2649C6.599 102.038 2 97.5484 2 92.0061V12.007C2 6.46735 6.599 1.96228 12.2649 1.96228H347.746C353.417 1.96228 357.997 6.46735 357.997 12.007L358 92.0061Z" fill="black"/>
<path d="M346.667 2.08325C352.84 2.08325 357.863 6.98101 357.863 13V91C357.863 97.019 352.84 101.917 346.667 101.917H13.3333C7.16 101.917 2.13667 97.019 2.13667 91V13C2.13667 6.98101 7.16 2.08325 13.3333 2.08325H346.667ZM346.667 7.62939e-06H13.3333C6.00333 7.62939e-06 0 5.85326 0 13V91C0 98.1468 6.00333 104 13.3333 104H346.667C353.997 104 360 98.1468 360 91V13C360 5.85326 353.997 7.62939e-06 346.667 7.62939e-06Z" fill="#A6A6A6"/>
<path d="M80.3413 51.4384C80.264 43.0586 87.3787 38.9818 87.704 38.792C83.6747 33.0642 77.4293 32.2816 75.2347 32.2192C69.9893 31.681 64.9013 35.2794 62.2293 35.2794C59.504 35.2794 55.3893 32.2712 50.9547 32.3596C45.248 32.4454 39.9093 35.6668 36.9813 40.6692C30.9387 50.869 35.4453 65.858 41.2347 74.1026C44.1307 78.1404 47.5147 82.6488 51.944 82.4902C56.2773 82.316 57.896 79.7966 63.1253 79.7966C68.3067 79.7966 69.8267 82.4902 74.344 82.3888C78.9947 82.316 81.9227 78.3328 84.7173 74.2586C88.064 69.6306 89.408 65.0728 89.4614 64.8388C89.352 64.8024 80.4294 61.4822 80.3413 51.4384Z" fill="white"/>
<path d="M71.808 26.7956C74.1387 23.9538 75.7333 20.0876 75.2907 16.1642C71.9173 16.3098 67.6987 18.4392 65.2693 21.2186C63.12 23.6678 61.2 27.6822 61.696 31.4574C65.4853 31.733 69.376 29.5932 71.808 26.7956Z" fill="white"/>
<path d="M130.8 26.0235C130.8 29.0837 129.859 31.3873 127.979 32.9343C126.237 34.3617 123.763 35.0767 120.557 35.0767C118.968 35.0767 117.608 35.0091 116.469 34.8739V18.1533C117.955 17.9193 119.555 17.7997 121.283 17.7997C124.336 17.7997 126.637 18.4471 128.189 19.7419C129.928 21.2057 130.8 23.2987 130.8 26.0235ZM127.853 26.0989C127.853 24.1151 127.315 22.5941 126.237 21.5333C125.16 20.4751 123.587 19.9447 121.515 19.9447C120.635 19.9447 119.885 20.0019 119.264 20.1215V32.8329C119.608 32.8849 120.237 32.9083 121.152 32.9083C123.291 32.9083 124.941 32.3285 126.104 31.1689C127.267 30.0093 127.853 28.3193 127.853 26.0989Z" fill="white"/>
<path d="M146.424 28.6963C146.424 30.5813 145.872 32.1257 144.768 33.3373C143.611 34.5827 142.077 35.2041 140.163 35.2041C138.317 35.2041 136.848 34.6087 135.752 33.4127C134.659 32.2193 134.112 30.7139 134.112 28.8991C134.112 27.0011 134.675 25.4437 135.805 24.2347C136.936 23.0257 138.456 22.4199 140.371 22.4199C142.216 22.4199 143.699 23.0153 144.821 24.2087C145.888 25.3683 146.424 26.8659 146.424 28.6963ZM143.525 28.7847C143.525 27.6537 143.275 26.6839 142.776 25.8753C142.189 24.8977 141.355 24.4089 140.269 24.4089C139.147 24.4089 138.293 24.8977 137.707 25.8753C137.205 26.6839 136.957 27.6693 136.957 28.8341C136.957 29.9651 137.208 30.9349 137.707 31.7435C138.312 32.7211 139.155 33.2099 140.243 33.2099C141.309 33.2099 142.147 32.7133 142.749 31.7175C143.267 30.8933 143.525 29.9157 143.525 28.7847Z" fill="white"/>
<path d="M167.373 22.6694L163.44 34.9258H160.88L159.251 29.6036C158.837 28.275 158.501 26.9542 158.24 25.6438H158.189C157.947 26.9906 157.611 28.3088 157.179 29.6036L155.448 34.9258H152.859L149.16 22.6694H152.032L153.453 28.496C153.797 29.874 154.08 31.187 154.307 32.4298H154.357C154.565 31.4054 154.909 30.1002 155.395 28.522L157.179 22.672H159.456L161.165 28.3972C161.579 29.7934 161.915 31.1376 162.173 32.4324H162.251C162.44 31.1714 162.725 29.8272 163.104 28.3972L164.629 22.672H167.373V22.6694Z" fill="white"/>
<path d="M181.861 34.9259H179.067V27.9059C179.067 25.7427 178.224 24.6611 176.533 24.6611C175.704 24.6611 175.035 24.9575 174.515 25.5529C174 26.1483 173.739 26.8503 173.739 27.6537V34.9233H170.944V26.1717C170.944 25.0953 170.909 23.9279 170.843 22.6643H173.299L173.429 24.5805H173.507C173.832 23.9851 174.317 23.4937 174.955 23.1011C175.712 22.6435 176.56 22.4121 177.488 22.4121C178.661 22.4121 179.637 22.7813 180.413 23.5223C181.379 24.4297 181.861 25.7843 181.861 27.5835V34.9259V34.9259Z" fill="white"/>
<path d="M189.568 34.9259H186.776V17.0457H189.568V34.9259Z" fill="white"/>
<path d="M206.021 28.6963C206.021 30.5813 205.469 32.1257 204.365 33.3373C203.208 34.5827 201.672 35.2041 199.76 35.2041C197.912 35.2041 196.443 34.6087 195.349 33.4127C194.256 32.2193 193.709 30.7139 193.709 28.8991C193.709 27.0011 194.272 25.4437 195.403 24.2347C196.533 23.0257 198.053 22.4199 199.965 22.4199C201.813 22.4199 203.293 23.0153 204.419 24.2087C205.485 25.3683 206.021 26.8659 206.021 28.6963ZM203.12 28.7847C203.12 27.6537 202.869 26.6839 202.371 25.8753C201.787 24.8977 200.949 24.4089 199.867 24.4089C198.741 24.4089 197.888 24.8977 197.304 25.8753C196.803 26.6839 196.555 27.6693 196.555 28.8341C196.555 29.9651 196.805 30.9349 197.304 31.7435C197.909 32.7211 198.752 33.2099 199.84 33.2099C200.907 33.2099 201.741 32.7133 202.344 31.7175C202.864 30.8933 203.12 29.9157 203.12 28.7847Z" fill="white"/>
<path d="M219.547 34.9259H217.037L216.829 33.5141H216.752C215.893 34.6399 214.669 35.2041 213.08 35.2041C211.893 35.2041 210.933 34.8323 210.211 34.0939C209.555 33.4231 209.227 32.5885 209.227 31.5979C209.227 30.1003 209.867 28.9589 211.155 28.1685C212.44 27.3781 214.248 26.9907 216.576 27.0089V26.7801C216.576 25.1655 215.707 24.3595 213.965 24.3595C212.725 24.3595 211.632 24.6637 210.688 25.2669L210.12 23.4781C211.288 22.7735 212.731 22.4199 214.432 22.4199C217.717 22.4199 219.365 24.1099 219.365 27.4899V32.0035C219.365 33.2281 219.427 34.2031 219.547 34.9259ZM216.645 30.7139V28.8237C213.563 28.7717 212.021 29.5959 212.021 31.2937C212.021 31.9333 212.197 32.4117 212.557 32.7315C212.917 33.0513 213.376 33.2099 213.923 33.2099C214.536 33.2099 215.109 33.0201 215.632 32.6431C216.157 32.2635 216.48 31.7825 216.6 31.1923C216.629 31.0597 216.645 30.8985 216.645 30.7139Z" fill="white"/>
<path d="M235.427 34.9259H232.947L232.816 32.9577H232.739C231.947 34.4553 230.597 35.2041 228.701 35.2041C227.187 35.2041 225.925 34.6243 224.925 33.4647C223.925 32.3051 223.427 30.7997 223.427 28.9511C223.427 26.9673 223.968 25.3605 225.056 24.1333C226.109 22.9893 227.4 22.4173 228.936 22.4173C230.624 22.4173 231.805 22.9711 232.477 24.0813H232.531V17.0457H235.328V31.6239C235.328 32.8173 235.36 33.9171 235.427 34.9259ZM232.531 29.7571V27.7135C232.531 27.3599 232.504 27.0739 232.453 26.8555C232.296 26.2003 231.957 25.6491 231.443 25.2045C230.923 24.7599 230.296 24.5363 229.573 24.5363C228.531 24.5363 227.715 24.9393 227.115 25.7479C226.52 26.5565 226.219 27.5887 226.219 28.8497C226.219 30.0613 226.504 31.0441 227.077 31.8007C227.683 32.6067 228.499 33.0097 229.52 33.0097C230.437 33.0097 231.171 32.6743 231.728 32.0009C232.267 31.3795 232.531 30.6307 232.531 29.7571Z" fill="white"/>
<path d="M259.328 28.6963C259.328 30.5813 258.776 32.1257 257.672 33.3373C256.515 34.5827 254.984 35.2041 253.067 35.2041C251.224 35.2041 249.755 34.6087 248.656 33.4127C247.563 32.2193 247.016 30.7139 247.016 28.8991C247.016 27.0011 247.579 25.4437 248.709 24.2347C249.84 23.0257 251.36 22.4199 253.277 22.4199C255.12 22.4199 256.605 23.0153 257.725 24.2087C258.792 25.3683 259.328 26.8659 259.328 28.6963ZM256.432 28.7847C256.432 27.6537 256.181 26.6839 255.683 25.8753C255.093 24.8977 254.261 24.4089 253.173 24.4089C252.053 24.4089 251.2 24.8977 250.611 25.8753C250.109 26.6839 249.861 27.6693 249.861 28.8341C249.861 29.9651 250.112 30.9349 250.611 31.7435C251.216 32.7211 252.059 33.2099 253.147 33.2099C254.213 33.2099 255.053 32.7133 255.656 31.7175C256.171 30.8933 256.432 29.9157 256.432 28.7847Z" fill="white"/>
<path d="M274.355 34.9259H271.563V27.9059C271.563 25.7427 270.72 24.6611 269.027 24.6611C268.197 24.6611 267.528 24.9575 267.011 25.5529C266.493 26.1483 266.235 26.8503 266.235 27.6537V34.9233H263.437V26.1717C263.437 25.0953 263.405 23.9279 263.339 22.6643H265.792L265.923 24.5805H266C266.328 23.9851 266.813 23.4937 267.448 23.1011C268.208 22.6435 269.053 22.4121 269.984 22.4121C271.155 22.4121 272.131 22.7813 272.907 23.5223C273.875 24.4297 274.355 25.7843 274.355 27.5835V34.9259V34.9259Z" fill="white"/>
<path d="M293.163 24.7105H290.085V30.6645C290.085 32.1777 290.632 32.9343 291.715 32.9343C292.216 32.9343 292.632 32.8927 292.96 32.8069L293.032 34.8739C292.48 35.0767 291.755 35.1781 290.861 35.1781C289.757 35.1781 288.899 34.8505 288.277 34.1953C287.653 33.5401 287.344 32.4377 287.344 30.8907V24.7105H285.507V22.6695H287.344V20.4231L290.083 19.6171V22.6669H293.16V24.7105H293.163Z" fill="white"/>
<path d="M307.957 34.9259H305.16V27.9579C305.16 25.7609 304.317 24.6611 302.629 24.6611C301.333 24.6611 300.448 25.2981 299.963 26.5721C299.88 26.8399 299.832 27.1675 299.832 27.5523V34.9233H297.04V17.0457H299.832V24.4323H299.885C300.765 23.0881 302.027 22.4173 303.661 22.4173C304.819 22.4173 305.776 22.7865 306.536 23.5275C307.483 24.4505 307.957 25.8233 307.957 27.6381V34.9259V34.9259Z" fill="white"/>
<path d="M323.219 28.2179C323.219 28.7067 323.181 29.1175 323.115 29.4529H314.733C314.771 30.6645 315.171 31.5875 315.947 32.2271C316.656 32.7991 317.571 33.0851 318.691 33.0851C319.931 33.0851 321.061 32.8927 322.08 32.5053L322.517 34.3981C321.325 34.9025 319.923 35.1547 318.299 35.1547C316.352 35.1547 314.819 34.5957 313.709 33.4777C312.595 32.3597 312.043 30.8595 312.043 28.9771C312.043 27.1285 312.557 25.5893 313.595 24.3621C314.677 23.0517 316.141 22.3965 317.989 22.3965C319.797 22.3965 321.171 23.0517 322.099 24.3621C322.848 25.4021 323.219 26.6891 323.219 28.2179ZM320.552 27.5133C320.573 26.7047 320.389 26.0079 320.011 25.4203C319.525 24.6637 318.787 24.2841 317.787 24.2841C316.875 24.2841 316.131 24.6533 315.563 25.3943C315.099 25.9845 314.824 26.6891 314.733 27.5133H320.552Z" fill="white"/>
<path d="M143.053 81.9104H136.997L133.68 71.747H122.149L118.989 81.9104H113.093L124.517 47.3096H131.573L143.053 81.9104ZM132.68 67.483L129.68 58.448C129.363 57.525 128.768 55.3514 127.891 51.9298H127.784C127.435 53.4014 126.872 55.575 126.099 58.448L123.152 67.483H132.68V67.483Z" fill="white"/>
<path d="M172.432 69.1288C172.432 73.372 171.256 76.726 168.904 79.1882C166.797 81.38 164.181 82.4746 161.059 82.4746C157.688 82.4746 155.267 81.2942 153.792 78.9334H153.685V92.0764H148V65.1742C148 62.5066 147.928 59.7688 147.789 56.9608H152.789L153.107 60.9154H153.213C155.109 57.9358 157.987 56.4486 161.848 56.4486C164.867 56.4486 167.387 57.6108 169.403 59.9378C171.424 62.2674 172.432 65.3302 172.432 69.1288ZM166.64 69.3316C166.64 66.9032 166.08 64.9012 164.955 63.3256C163.725 61.6824 162.075 60.8608 160.005 60.8608C158.603 60.8608 157.328 61.3184 156.189 62.2206C155.048 63.1306 154.301 64.3188 153.952 65.7904C153.776 66.4768 153.688 67.0384 153.688 67.4804V71.6404C153.688 73.4552 154.259 74.9866 155.4 76.2372C156.541 77.4878 158.024 78.1118 159.848 78.1118C161.989 78.1118 163.656 77.3058 164.848 75.699C166.043 74.0896 166.64 71.968 166.64 69.3316Z" fill="white"/>
<path d="M201.864 69.1288C201.864 73.372 200.688 76.726 198.333 79.1882C196.229 81.38 193.613 82.4746 190.491 82.4746C187.12 82.4746 184.699 81.2942 183.227 78.9334H183.12V92.0764H177.435V65.1742C177.435 62.5066 177.363 59.7688 177.224 56.9608H182.224L182.541 60.9154H182.648C184.541 57.9358 187.419 56.4486 191.283 56.4486C194.299 56.4486 196.819 57.6108 198.84 59.9378C200.853 62.2674 201.864 65.3302 201.864 69.1288ZM196.072 69.3316C196.072 66.9032 195.509 64.9012 194.384 63.3256C193.155 61.6824 191.509 60.8608 189.437 60.8608C188.032 60.8608 186.76 61.3184 185.619 62.2206C184.477 63.1306 183.733 64.3188 183.384 65.7904C183.211 66.4768 183.12 67.0384 183.12 67.4804V71.6404C183.12 73.4552 183.691 74.9866 184.827 76.2372C185.968 77.4852 187.451 78.1118 189.28 78.1118C191.421 78.1118 193.088 77.3058 194.28 75.699C195.475 74.0896 196.072 71.968 196.072 69.3316Z" fill="white"/>
<path d="M234.771 72.2072C234.771 75.1504 233.723 77.545 231.619 79.3936C229.307 81.4138 226.088 82.4226 221.952 82.4226C218.133 82.4226 215.072 81.705 212.755 80.2672L214.072 75.647C216.568 77.1186 219.307 77.857 222.291 77.857C224.432 77.857 226.099 77.3838 227.296 76.4426C228.488 75.5014 229.083 74.2378 229.083 72.6622C229.083 71.2582 228.592 70.0752 227.608 69.1158C226.629 68.1564 224.995 67.2646 222.712 66.4404C216.499 64.181 213.395 60.8712 213.395 56.5188C213.395 53.6744 214.483 51.3422 216.661 49.5274C218.832 47.71 221.728 46.8026 225.349 46.8026C228.579 46.8026 231.261 47.3512 233.403 48.4458L231.981 52.9646C229.981 51.9038 227.72 51.3734 225.189 51.3734C223.189 51.3734 221.627 51.8544 220.507 52.8112C219.56 53.6666 219.085 54.7092 219.085 55.9442C219.085 57.3118 219.627 58.4428 220.715 59.332C221.661 60.1536 223.381 61.0428 225.877 62.0022C228.931 63.2008 231.173 64.6022 232.616 66.209C234.053 67.8106 234.771 69.8152 234.771 72.2072Z" fill="white"/>
<path d="M253.568 61.1207H247.301V73.2341C247.301 76.3151 248.405 77.8543 250.619 77.8543C251.635 77.8543 252.477 77.7685 253.144 77.5969L253.301 81.8063C252.181 82.2145 250.707 82.4199 248.88 82.4199C246.635 82.4199 244.88 81.7517 243.613 80.4179C242.352 79.0815 241.717 76.8403 241.717 73.6917V61.1155H237.984V56.9555H241.717V52.3873L247.301 50.7441V56.9555H253.568V61.1207Z" fill="white"/>
<path d="M281.843 69.2302C281.843 73.0652 280.717 76.2138 278.472 78.676C276.117 81.211 272.992 82.4746 269.096 82.4746C265.341 82.4746 262.352 81.2604 260.123 78.832C257.893 76.4036 256.779 73.3382 256.779 69.6436C256.779 65.7774 257.925 62.6106 260.227 60.1484C262.523 57.6836 265.621 56.4512 269.517 56.4512C273.272 56.4512 276.293 57.6654 278.573 60.0964C280.755 62.4546 281.843 65.4992 281.843 69.2302ZM275.944 69.4096C275.944 67.1086 275.44 65.1352 274.419 63.4894C273.227 61.4978 271.523 60.5046 269.315 60.5046C267.029 60.5046 265.293 61.5004 264.101 63.4894C263.08 65.1378 262.576 67.1424 262.576 69.5136C262.576 71.8146 263.08 73.788 264.101 75.4312C265.331 77.4228 267.048 78.416 269.264 78.416C271.435 78.416 273.139 77.402 274.368 75.3792C275.416 73.7022 275.944 71.708 275.944 69.4096Z" fill="white"/>
<path d="M300.323 61.8358C299.76 61.7344 299.16 61.6824 298.531 61.6824C296.531 61.6824 294.984 62.4182 293.896 63.8924C292.949 65.1924 292.475 66.8356 292.475 68.8194V81.9104H286.792L286.845 64.818C286.845 61.9424 286.773 59.3242 286.632 56.9634H291.584L291.792 61.737H291.949C292.549 60.0964 293.496 58.7756 294.792 57.785C296.059 56.8932 297.427 56.4486 298.901 56.4486C299.427 56.4486 299.901 56.485 300.323 56.55V61.8358Z" fill="white"/>
<path d="M325.749 68.2553C325.749 69.2485 325.683 70.0857 325.541 70.7695H308.485C308.552 73.2343 309.376 75.1193 310.96 76.4193C312.397 77.5815 314.256 78.1639 316.539 78.1639C319.064 78.1639 321.368 77.7713 323.44 76.9835L324.331 80.8315C321.909 81.8611 319.051 82.3733 315.752 82.3733C311.784 82.3733 308.669 81.2345 306.403 78.9595C304.141 76.6845 303.008 73.6295 303.008 69.7971C303.008 66.0349 304.061 62.9019 306.171 60.4033C308.379 57.7357 311.363 56.4019 315.117 56.4019C318.805 56.4019 321.597 57.7357 323.493 60.4033C324.995 62.5223 325.749 65.1431 325.749 68.2553ZM320.328 66.8175C320.365 65.1743 319.995 63.7547 319.224 62.5561C318.24 61.0143 316.728 60.2447 314.693 60.2447C312.835 60.2447 311.323 60.9961 310.168 62.5041C309.221 63.7027 308.659 65.1405 308.485 66.8149H320.328V66.8175Z" fill="white"/>
</svg>
