<svg width="363" height="105" viewBox="0 0 363 105" fill="none" xmlns="http://www.w3.org/2000/svg">
<path d="M349.556 105H13.4444C6.05336 105 0 99.0905 0 91.875V13.125C0 5.90953 6.05336 0 13.4444 0H349.556C356.947 0 363 5.90953 363 13.125V91.875C363 99.0905 356.947 105 349.556 105Z" fill="black"/>
<path d="M349.556 2.10328C355.78 2.10328 360.846 7.04813 360.846 13.125V91.875C360.846 97.9519 355.78 102.897 349.556 102.897H13.4444C7.21967 102.897 2.15447 97.9519 2.15447 91.875V13.125C2.15447 7.04813 7.21967 2.10328 13.4444 2.10328H349.556ZM349.556 0H13.4444C6.05336 0 0 5.90953 0 13.125V91.875C0 99.0905 6.05336 105 13.4444 105H349.556C356.947 105 363 99.0905 363 91.875V13.125C363 5.90953 356.947 0 349.556 0Z" fill="#A6A6A6"/>
<path d="M28.0586 19.7892C27.2687 20.5964 26.8116 21.8531 26.8116 23.4806V81.5325C26.8116 83.16 27.2687 84.4167 28.0586 85.2239L28.2535 85.4011L61.5756 52.8839V52.1161L28.2535 19.5989L28.0586 19.7892Z" fill="url(#paint0_linear_1_107)"/>
<path d="M72.6705 63.7284L61.5755 52.8839V52.1161L72.6839 41.2715L72.9327 41.4126L86.088 48.72C89.8424 50.7937 89.8424 54.2062 86.088 56.2931L72.9327 63.5873L72.6705 63.7284V63.7284Z" fill="url(#paint1_linear_1_107)"/>
<path d="M72.9328 63.5874L61.5756 52.5L28.0586 85.2239C29.3055 86.5036 31.339 86.6578 33.6514 85.3782L72.9328 63.5874" fill="url(#paint2_linear_1_107)"/>
<path d="M72.9328 41.4127L33.6514 19.6219C31.339 18.3553 29.3055 18.5095 28.0586 19.7892L61.5756 52.5L72.9328 41.4127Z" fill="url(#paint3_linear_1_107)"/>
<path d="M127.5 26.8898C127.5 29.0817 126.828 30.8372 125.504 32.1464C123.981 33.6984 121.998 34.4794 119.568 34.4794C117.246 34.4794 115.263 33.6853 113.636 32.1202C112.006 30.532 111.192 28.583 111.192 26.25C111.192 23.917 112.006 21.968 113.636 20.393C115.263 18.8147 117.246 18.0206 119.568 18.0206C120.724 18.0206 121.827 18.2536 122.879 18.6867C123.928 19.1231 124.781 19.7138 125.4 20.4422L123.995 21.8269C122.916 20.5833 121.447 19.9697 119.568 19.9697C117.874 19.9697 116.405 20.5472 115.158 21.712C113.925 22.8802 113.306 24.3928 113.306 26.25C113.306 28.1072 113.925 29.633 115.158 30.8011C116.405 31.9528 117.874 32.5434 119.568 32.5434C121.366 32.5434 122.879 31.9528 124.072 30.788C124.859 30.0169 125.306 28.9538 125.423 27.5953H119.568V25.6988H127.379C127.473 26.1089 127.5 26.5059 127.5 26.8898V26.8898Z" fill="white" stroke="white" stroke-width="0.16" stroke-miterlimit="10"/>
<path d="M139.893 20.3142H132.555V25.3017H139.17V27.1983H132.555V32.1858H139.893V34.1185H130.478V18.3816H139.893V20.3142Z" fill="white" stroke="white" stroke-width="0.16" stroke-miterlimit="10"/>
<path d="M148.638 34.1185H146.561V20.3142H142.061V18.3816H153.142V20.3142H148.638V34.1185V34.1185Z" fill="white" stroke="white" stroke-width="0.16" stroke-miterlimit="10"/>
<path d="M161.162 34.1185V18.3816H163.236V34.1185H161.162Z" fill="white" stroke="white" stroke-width="0.16" stroke-miterlimit="10"/>
<path d="M172.428 34.1185H170.368V20.3142H165.851V18.3816H176.946V20.3142H172.428V34.1185Z" fill="white" stroke="white" stroke-width="0.16" stroke-miterlimit="10"/>
<path d="M197.926 32.0939C196.336 33.6853 194.366 34.4794 192.017 34.4794C189.654 34.4794 187.684 33.6853 186.095 32.0939C184.508 30.5058 183.718 28.5567 183.718 26.25C183.718 23.9433 184.508 21.9942 186.095 20.4061C187.684 18.8147 189.654 18.0206 192.017 18.0206C194.353 18.0206 196.322 18.8147 197.912 20.4192C199.512 22.0205 200.302 23.9564 200.302 26.25C200.302 28.5567 199.512 30.5058 197.926 32.0939ZM187.631 30.7748C188.827 31.9528 190.283 32.5434 192.017 32.5434C193.738 32.5434 195.207 31.9528 196.39 30.7748C197.583 29.5969 198.188 28.0842 198.188 26.25C198.188 24.4158 197.583 22.9031 196.39 21.7252C195.207 20.5472 193.738 19.9566 192.017 19.9566C190.283 19.9566 188.827 20.5472 187.631 21.7252C186.437 22.9031 185.832 24.4158 185.832 26.25C185.832 28.0842 186.437 29.5969 187.631 30.7748V30.7748Z" fill="white" stroke="white" stroke-width="0.16" stroke-miterlimit="10"/>
<path d="M203.216 34.1185V18.3816H205.737L213.575 30.6207H213.666L213.575 27.5953V18.3816H215.649V34.1185H213.484L205.276 21.2757H205.186L205.276 24.3141V34.1185H203.216V34.1185Z" fill="white" stroke="white" stroke-width="0.16" stroke-miterlimit="10"/>
<path d="M183.207 57.1004C176.892 57.1004 171.733 61.7926 171.733 68.2665C171.733 74.6879 176.892 79.4293 183.207 79.4293C189.536 79.4293 194.696 74.6879 194.696 68.2665C194.696 61.7926 189.536 57.1004 183.207 57.1004ZM183.207 75.0324C179.742 75.0324 176.761 72.2401 176.761 68.2665C176.761 64.2404 179.742 61.4973 183.207 61.4973C186.673 61.4973 189.667 64.2404 189.667 68.2665C189.667 72.2401 186.673 75.0324 183.207 75.0324V75.0324ZM158.17 57.1004C151.842 57.1004 146.696 61.7926 146.696 68.2665C146.696 74.6879 151.842 79.4293 158.17 79.4293C164.496 79.4293 169.645 74.6879 169.645 68.2665C169.645 61.7926 164.496 57.1004 158.17 57.1004ZM158.17 75.0324C154.702 75.0324 151.71 72.2401 151.71 68.2665C151.71 64.2404 154.702 61.4973 158.17 61.4973C161.636 61.4973 164.617 64.2404 164.617 68.2665C164.617 72.2401 161.636 75.0324 158.17 75.0324ZM128.378 60.5227V65.2674H139.984C139.644 67.9187 138.737 69.8677 137.345 71.2262C135.651 72.8668 133.013 74.6879 128.378 74.6879C121.235 74.6879 115.642 69.0605 115.642 62.0879C115.642 55.1152 121.235 49.4879 128.378 49.4879C132.24 49.4879 135.049 50.9612 137.123 52.8708L140.548 49.5273C137.648 46.8235 133.789 44.7465 128.378 44.7465C118.583 44.7465 110.352 52.5263 110.352 62.0879C110.352 71.6494 118.583 79.4293 128.378 79.4293C133.671 79.4293 137.648 77.7361 140.773 74.5599C143.977 71.4329 144.975 67.036 144.975 63.4857C144.975 62.3832 144.881 61.3693 144.713 60.5227H128.378ZM250.204 64.201C249.26 61.704 246.346 57.1004 240.41 57.1004C234.528 57.1004 229.631 61.6252 229.631 68.2665C229.631 74.5205 234.478 79.4293 240.975 79.4293C246.228 79.4293 249.26 76.3022 250.507 74.4811L246.608 71.9447C245.307 73.8019 243.536 75.0324 240.975 75.0324C238.43 75.0324 236.605 73.8938 235.436 71.6494L250.732 65.4708L250.204 64.201V64.201ZM234.609 67.9187C234.478 63.6137 238.034 61.4087 240.582 61.4087C242.578 61.4087 244.272 62.3832 244.837 63.7777L234.609 67.9187V67.9187ZM222.176 78.7501H227.204V45.9376H222.176V78.7501ZM213.941 59.5876H213.773C212.644 58.2816 210.49 57.1004 207.76 57.1004C202.033 57.1004 196.796 62.0091 196.796 68.3026C196.796 74.5599 202.033 79.4293 207.76 79.4293C210.49 79.4293 212.644 78.2382 213.773 76.8929H213.941V78.4941C213.941 82.763 211.605 85.0566 207.838 85.0566C204.766 85.0566 202.86 82.891 202.073 81.0699L197.7 82.8516C198.961 85.8113 202.298 89.4535 207.838 89.4535C213.733 89.4535 218.707 86.0672 218.707 77.828V57.7796H213.941V59.5876V59.5876ZM208.191 75.0324C204.725 75.0324 201.825 72.2007 201.825 68.3026C201.825 64.3683 204.725 61.4973 208.191 61.4973C211.605 61.4973 214.298 64.3683 214.298 68.3026C214.298 72.2007 211.605 75.0324 208.191 75.0324V75.0324ZM273.746 45.9376H261.72V78.7501H266.734V66.3174H273.746C279.315 66.3174 284.777 62.3832 284.777 56.1258C284.777 49.8718 279.302 45.9376 273.746 45.9376V45.9376ZM273.877 61.7532H266.734V50.5018H273.877C277.621 50.5018 279.759 53.5369 279.759 56.1258C279.759 58.6655 277.621 61.7532 273.877 61.7532ZM304.876 57.038C301.253 57.038 297.485 58.5999 295.936 62.0616L300.386 63.8827C301.344 62.0616 303.105 61.471 304.967 61.471C307.568 61.471 310.207 62.9968 310.247 65.6907V66.0352C309.34 65.5233 307.397 64.7654 305.007 64.7654C300.214 64.7654 295.331 67.3412 295.331 72.1482C295.331 76.5451 299.256 79.3768 303.67 79.3768C307.044 79.3768 308.906 77.8904 310.076 76.1612H310.247V78.6976H315.091V66.1107C315.091 60.293 310.641 57.038 304.876 57.038ZM304.271 75.0193C302.631 75.0193 300.345 74.2252 300.345 72.2401C300.345 69.7004 303.196 68.7258 305.663 68.7258C307.871 68.7258 308.906 69.2016 310.247 69.8283C309.854 72.8668 307.175 75.0193 304.271 75.0193V75.0193ZM332.736 57.7566L326.972 71.9808H326.801L320.841 57.7566H315.433L324.387 77.6344L319.279 88.6955H324.519L338.316 57.7566H332.736V57.7566ZM287.533 78.7501H292.561V45.9376H287.533V78.7501Z" fill="white"/>
<defs>
<linearGradient id="paint0_linear_1_107" x1="58.617" y1="82.1371" x2="14.5759" y2="37.0241" gradientUnits="userSpaceOnUse">
<stop stop-color="#00A0FF"/>
<stop offset="0.0066" stop-color="#00A1FF"/>
<stop offset="0.2601" stop-color="#00BEFF"/>
<stop offset="0.5122" stop-color="#00D2FF"/>
<stop offset="0.7604" stop-color="#00DFFF"/>
<stop offset="1" stop-color="#00E3FF"/>
</linearGradient>
<linearGradient id="paint1_linear_1_107" x1="90.9769" y1="52.4963" x2="25.9141" y2="52.4963" gradientUnits="userSpaceOnUse">
<stop stop-color="#FFE000"/>
<stop offset="0.4087" stop-color="#FFBD00"/>
<stop offset="0.7754" stop-color="#FFA500"/>
<stop offset="1" stop-color="#FF9C00"/>
</linearGradient>
<linearGradient id="paint2_linear_1_107" x1="66.757" y1="46.4728" x2="7.03378" y2="-14.7041" gradientUnits="userSpaceOnUse">
<stop stop-color="#FF3A44"/>
<stop offset="1" stop-color="#C31162"/>
</linearGradient>
<linearGradient id="paint3_linear_1_107" x1="19.6216" y1="104.537" x2="46.2908" y2="77.2195" gradientUnits="userSpaceOnUse">
<stop stop-color="#32A071"/>
<stop offset="0.0685" stop-color="#2DA771"/>
<stop offset="0.4762" stop-color="#15CF74"/>
<stop offset="0.8009" stop-color="#06E775"/>
<stop offset="1" stop-color="#00F076"/>
</linearGradient>
</defs>
</svg>
