<svg width="100" height="100" viewBox="0 0 100 100" fill="none" xmlns="http://www.w3.org/2000/svg">
<g clip-path="url(#clip0_1_474)">
<path d="M100 0H0V100H100V0Z" fill="white"/>
<path d="M10.4167 6.25H6.25V10.4167H10.4167V6.25Z" fill="black"/>
<path d="M14.5833 6.25H10.4167V10.4167H14.5833V6.25Z" fill="black"/>
<path d="M18.75 6.25H14.5833V10.4167H18.75V6.25Z" fill="black"/>
<path d="M22.9167 6.25H18.75V10.4167H22.9167V6.25Z" fill="black"/>
<path d="M27.0833 6.25H22.9167V10.4167H27.0833V6.25Z" fill="black"/>
<path d="M31.25 6.25H27.0833V10.4167H31.25V6.25Z" fill="black"/>
<path d="M35.4167 6.25H31.25V10.4167H35.4167V6.25Z" fill="black"/>
<path d="M43.75 6.25H39.5833V10.4167H43.75V6.25Z" fill="black"/>
<path d="M52.0833 6.25H47.9167V10.4167H52.0833V6.25Z" fill="black"/>
<path d="M56.25 6.25H52.0833V10.4167H56.25V6.25Z" fill="black"/>
<path d="M60.4167 6.25H56.25V10.4167H60.4167V6.25Z" fill="black"/>
<path d="M68.75 6.25H64.5833V10.4167H68.75V6.25Z" fill="black"/>
<path d="M72.9167 6.25H68.75V10.4167H72.9167V6.25Z" fill="black"/>
<path d="M77.0833 6.25H72.9167V10.4167H77.0833V6.25Z" fill="black"/>
<path d="M81.25 6.25H77.0833V10.4167H81.25V6.25Z" fill="black"/>
<path d="M85.4167 6.25H81.25V10.4167H85.4167V6.25Z" fill="black"/>
<path d="M89.5833 6.25H85.4167V10.4167H89.5833V6.25Z" fill="black"/>
<path d="M93.75 6.25H89.5833V10.4167H93.75V6.25Z" fill="black"/>
<path d="M10.4167 10.4167H6.25V14.5833H10.4167V10.4167Z" fill="black"/>
<path d="M35.4167 10.4167H31.25V14.5833H35.4167V10.4167Z" fill="black"/>
<path d="M68.75 10.4167H64.5833V14.5833H68.75V10.4167Z" fill="black"/>
<path d="M93.75 10.4167H89.5833V14.5833H93.75V10.4167Z" fill="black"/>
<path d="M10.4167 14.5833H6.25V18.75H10.4167V14.5833Z" fill="black"/>
<path d="M18.75 14.5833H14.5833V18.75H18.75V14.5833Z" fill="black"/>
<path d="M22.9167 14.5833H18.75V18.75H22.9167V14.5833Z" fill="black"/>
<path d="M27.0833 14.5833H22.9167V18.75H27.0833V14.5833Z" fill="black"/>
<path d="M35.4167 14.5833H31.25V18.75H35.4167V14.5833Z" fill="black"/>
<path d="M52.0833 14.5833H47.9167V18.75H52.0833V14.5833Z" fill="black"/>
<path d="M56.25 14.5833H52.0833V18.75H56.25V14.5833Z" fill="black"/>
<path d="M68.75 14.5833H64.5833V18.75H68.75V14.5833Z" fill="black"/>
<path d="M77.0833 14.5833H72.9167V18.75H77.0833V14.5833Z" fill="black"/>
<path d="M81.25 14.5833H77.0833V18.75H81.25V14.5833Z" fill="black"/>
<path d="M85.4167 14.5833H81.25V18.75H85.4167V14.5833Z" fill="black"/>
<path d="M93.75 14.5833H89.5833V18.75H93.75V14.5833Z" fill="black"/>
<path d="M10.4167 18.75H6.25V22.9167H10.4167V18.75Z" fill="black"/>
<path d="M18.75 18.75H14.5833V22.9167H18.75V18.75Z" fill="black"/>
<path d="M22.9167 18.75H18.75V22.9167H22.9167V18.75Z" fill="black"/>
<path d="M27.0833 18.75H22.9167V22.9167H27.0833V18.75Z" fill="black"/>
<path d="M35.4167 18.75H31.25V22.9167H35.4167V18.75Z" fill="black"/>
<path d="M60.4167 18.75H56.25V22.9167H60.4167V18.75Z" fill="black"/>
<path d="M68.75 18.75H64.5833V22.9167H68.75V18.75Z" fill="black"/>
<path d="M77.0833 18.75H72.9167V22.9167H77.0833V18.75Z" fill="black"/>
<path d="M81.25 18.75H77.0833V22.9167H81.25V18.75Z" fill="black"/>
<path d="M85.4167 18.75H81.25V22.9167H85.4167V18.75Z" fill="black"/>
<path d="M93.75 18.75H89.5833V22.9167H93.75V18.75Z" fill="black"/>
<path d="M10.4167 22.9167H6.25V27.0833H10.4167V22.9167Z" fill="black"/>
<path d="M18.75 22.9167H14.5833V27.0833H18.75V22.9167Z" fill="black"/>
<path d="M22.9167 22.9167H18.75V27.0833H22.9167V22.9167Z" fill="black"/>
<path d="M27.0833 22.9167H22.9167V27.0833H27.0833V22.9167Z" fill="black"/>
<path d="M35.4167 22.9167H31.25V27.0833H35.4167V22.9167Z" fill="black"/>
<path d="M47.9167 22.9167H43.75V27.0833H47.9167V22.9167Z" fill="black"/>
<path d="M56.25 22.9167H52.0833V27.0833H56.25V22.9167Z" fill="black"/>
<path d="M60.4167 22.9167H56.25V27.0833H60.4167V22.9167Z" fill="black"/>
<path d="M68.75 22.9167H64.5833V27.0833H68.75V22.9167Z" fill="black"/>
<path d="M77.0833 22.9167H72.9167V27.0833H77.0833V22.9167Z" fill="black"/>
<path d="M81.25 22.9167H77.0833V27.0833H81.25V22.9167Z" fill="black"/>
<path d="M85.4167 22.9167H81.25V27.0833H85.4167V22.9167Z" fill="black"/>
<path d="M93.75 22.9167H89.5833V27.0833H93.75V22.9167Z" fill="black"/>
<path d="M10.4167 27.0833H6.25V31.25H10.4167V27.0833Z" fill="black"/>
<path d="M35.4167 27.0833H31.25V31.25H35.4167V27.0833Z" fill="black"/>
<path d="M47.9167 27.0833H43.75V31.25H47.9167V27.0833Z" fill="black"/>
<path d="M52.0833 27.0833H47.9167V31.25H52.0833L52.0833 27.0833Z" fill="black"/>
<path d="M68.75 27.0833H64.5833V31.25H68.75V27.0833Z" fill="black"/>
<path d="M93.75 27.0833H89.5833V31.25H93.75V27.0833Z" fill="black"/>
<path d="M10.4167 31.25H6.25V35.4167H10.4167V31.25Z" fill="black"/>
<path d="M14.5833 31.25H10.4167V35.4167H14.5833V31.25Z" fill="black"/>
<path d="M18.75 31.25H14.5833V35.4167H18.75V31.25Z" fill="black"/>
<path d="M22.9167 31.25H18.75V35.4167H22.9167V31.25Z" fill="black"/>
<path d="M27.0833 31.25H22.9167V35.4167H27.0833V31.25Z" fill="black"/>
<path d="M31.25 31.25H27.0833V35.4167H31.25V31.25Z" fill="black"/>
<path d="M35.4167 31.25H31.25V35.4167H35.4167V31.25Z" fill="black"/>
<path d="M43.75 31.25H39.5833V35.4167H43.75L43.75 31.25Z" fill="black"/>
<path d="M52.0833 31.25H47.9167L47.9167 35.4167H52.0833V31.25Z" fill="black"/>
<path d="M60.4167 31.25H56.25V35.4167H60.4167V31.25Z" fill="black"/>
<path d="M68.75 31.25H64.5833V35.4167H68.75V31.25Z" fill="black"/>
<path d="M72.9167 31.25H68.75V35.4167H72.9167V31.25Z" fill="black"/>
<path d="M77.0833 31.25H72.9167V35.4167H77.0833V31.25Z" fill="black"/>
<path d="M81.25 31.25H77.0833V35.4167H81.25V31.25Z" fill="black"/>
<path d="M85.4167 31.25H81.25V35.4167H85.4167V31.25Z" fill="black"/>
<path d="M89.5833 31.25H85.4167V35.4167H89.5833V31.25Z" fill="black"/>
<path d="M93.75 31.25H89.5833V35.4167H93.75V31.25Z" fill="black"/>
<path d="M47.9167 35.4167H43.75L43.75 39.5833H47.9167L47.9167 35.4167Z" fill="black"/>
<path d="M52.0833 35.4167H47.9167L47.9167 39.5833H52.0833V35.4167Z" fill="black"/>
<path d="M60.4167 35.4167H56.25V39.5833H60.4167V35.4167Z" fill="black"/>
<path d="M14.5833 39.5833H10.4167V43.75H14.5833V39.5833Z" fill="black"/>
<path d="M18.75 39.5833H14.5833V43.75H18.75V39.5833Z" fill="black"/>
<path d="M22.9167 39.5833H18.75V43.75H22.9167V39.5833Z" fill="black"/>
<path d="M35.4167 39.5833H31.25V43.75H35.4167V39.5833Z" fill="black"/>
<path d="M39.5833 39.5833H35.4167V43.75H39.5833V39.5833Z" fill="black"/>
<path d="M43.75 39.5833L39.5833 39.5833V43.75H43.75L43.75 39.5833Z" fill="black"/>
<path d="M47.9167 39.5833H43.75L43.75 43.75H47.9167V39.5833Z" fill="black"/>
<path d="M60.4167 39.5833H56.25V43.75H60.4167V39.5833Z" fill="black"/>
<path d="M64.5833 39.5833L60.4167 39.5833V43.75H64.5833V39.5833Z" fill="black"/>
<path d="M93.75 39.5833H89.5833V43.75H93.75V39.5833Z" fill="black"/>
<path d="M10.4167 43.75L6.25 43.75V47.9167H10.4167V43.75Z" fill="black"/>
<path d="M14.5833 43.75H10.4167V47.9167H14.5833V43.75Z" fill="black"/>
<path d="M18.75 43.75H14.5833V47.9167H18.75V43.75Z" fill="black"/>
<path d="M22.9167 43.75H18.75V47.9167H22.9167V43.75Z" fill="black"/>
<path d="M31.25 43.75L27.0833 43.75V47.9167H31.25V43.75Z" fill="black"/>
<path d="M43.75 43.75H39.5833L39.5833 47.9167H43.75V43.75Z" fill="black"/>
<path d="M60.4167 43.75H56.25V47.9167H60.4167V43.75Z" fill="black"/>
<path d="M64.5833 43.75H60.4167V47.9167H64.5833V43.75Z" fill="black"/>
<path d="M68.75 43.75L64.5833 43.75V47.9167H68.75V43.75Z" fill="black"/>
<path d="M77.0833 43.75H72.9167V47.9167H77.0833V43.75Z" fill="black"/>
<path d="M85.4167 43.75H81.25V47.9167H85.4167V43.75Z" fill="black"/>
<path d="M89.5833 43.75L85.4167 43.75V47.9167H89.5833V43.75Z" fill="black"/>
<path d="M93.75 43.75H89.5833V47.9167H93.75V43.75Z" fill="black"/>
<path d="M14.5833 47.9167H10.4167V52.0833H14.5833V47.9167Z" fill="black"/>
<path d="M18.75 47.9167H14.5833V52.0833H18.75V47.9167Z" fill="black"/>
<path d="M22.9167 47.9167H18.75V52.0833H22.9167V47.9167Z" fill="black"/>
<path d="M35.4167 47.9167L31.25 47.9167V52.0833H35.4167V47.9167Z" fill="black"/>
<path d="M39.5833 47.9167L35.4167 47.9167V52.0833H39.5833L39.5833 47.9167Z" fill="black"/>
<path d="M43.75 47.9167H39.5833L39.5833 52.0833H43.75V47.9167Z" fill="black"/>
<path d="M47.9167 47.9167L43.75 47.9167V52.0833H47.9167V47.9167Z" fill="black"/>
<path d="M52.0833 47.9167H47.9167V52.0833H52.0833V47.9167Z" fill="black"/>
<path d="M68.75 47.9167H64.5833V52.0833H68.75V47.9167Z" fill="black"/>
<path d="M72.9167 47.9167H68.75V52.0833H72.9167V47.9167Z" fill="black"/>
<path d="M77.0833 47.9167H72.9167V52.0833H77.0833V47.9167Z" fill="black"/>
<path d="M81.25 47.9167H77.0833V52.0833H81.25V47.9167Z" fill="black"/>
<path d="M93.75 47.9167H89.5833V52.0833H93.75V47.9167Z" fill="black"/>
<path d="M18.75 52.0833H14.5833V56.25H18.75V52.0833Z" fill="black"/>
<path d="M31.25 52.0833L27.0833 52.0833V56.25H31.25V52.0833Z" fill="black"/>
<path d="M43.75 52.0833H39.5833L39.5833 56.25H43.75V52.0833Z" fill="black"/>
<path d="M47.9167 52.0833H43.75V56.25H47.9167V52.0833Z" fill="black"/>
<path d="M56.25 52.0833L52.0833 52.0833L52.0833 56.25H56.25V52.0833Z" fill="black"/>
<path d="M60.4167 52.0833H56.25V56.25H60.4167V52.0833Z" fill="black"/>
<path d="M68.75 52.0833H64.5833V56.25H68.75V52.0833Z" fill="black"/>
<path d="M77.0833 52.0833H72.9167V56.25H77.0833V52.0833Z" fill="black"/>
<path d="M85.4167 52.0833L81.25 52.0833V56.25H85.4167V52.0833Z" fill="black"/>
<path d="M89.5833 52.0833L85.4167 52.0833V56.25H89.5833V52.0833Z" fill="black"/>
<path d="M93.75 52.0833H89.5833V56.25H93.75V52.0833Z" fill="black"/>
<path d="M18.75 56.25H14.5833V60.4167H18.75V56.25Z" fill="black"/>
<path d="M22.9167 56.25H18.75V60.4167H22.9167V56.25Z" fill="black"/>
<path d="M27.0833 56.25H22.9167V60.4167H27.0833V56.25Z" fill="black"/>
<path d="M35.4167 56.25H31.25V60.4167H35.4167V56.25Z" fill="black"/>
<path d="M47.9167 56.25H43.75L43.75 60.4167H47.9167V56.25Z" fill="black"/>
<path d="M52.0833 56.25H47.9167V60.4167H52.0833L52.0833 56.25Z" fill="black"/>
<path d="M56.25 56.25H52.0833L52.0833 60.4167H56.25V56.25Z" fill="black"/>
<path d="M60.4167 56.25H56.25V60.4167H60.4167V56.25Z" fill="black"/>
<path d="M64.5833 56.25H60.4167V60.4167H64.5833V56.25Z" fill="black"/>
<path d="M81.25 56.25H77.0833V60.4167H81.25V56.25Z" fill="black"/>
<path d="M85.4167 56.25H81.25V60.4167H85.4167V56.25Z" fill="black"/>
<path d="M89.5833 56.25H85.4167V60.4167H89.5833V56.25Z" fill="black"/>
<path d="M43.75 60.4167H39.5833V64.5833H43.75L43.75 60.4167Z" fill="black"/>
<path d="M47.9167 60.4167H43.75L43.75 64.5833H47.9167V60.4167Z" fill="black"/>
<path d="M56.25 60.4167H52.0833L52.0833 64.5833H56.25V60.4167Z" fill="black"/>
<path d="M60.4167 60.4167H56.25V64.5833H60.4167V60.4167Z" fill="black"/>
<path d="M68.75 60.4167H64.5833V64.5833H68.75V60.4167Z" fill="black"/>
<path d="M72.9167 60.4167H68.75V64.5833H72.9167V60.4167Z" fill="black"/>
<path d="M81.25 60.4167H77.0833V64.5833H81.25V60.4167Z" fill="black"/>
<path d="M89.5833 60.4167H85.4167V64.5833H89.5833V60.4167Z" fill="black"/>
<path d="M10.4167 64.5833H6.25V68.75H10.4167V64.5833Z" fill="black"/>
<path d="M14.5833 64.5833H10.4167V68.75H14.5833V64.5833Z" fill="black"/>
<path d="M18.75 64.5833H14.5833V68.75H18.75V64.5833Z" fill="black"/>
<path d="M22.9167 64.5833H18.75V68.75H22.9167V64.5833Z" fill="black"/>
<path d="M27.0833 64.5833H22.9167V68.75H27.0833V64.5833Z" fill="black"/>
<path d="M31.25 64.5833H27.0833V68.75H31.25V64.5833Z" fill="black"/>
<path d="M35.4167 64.5833H31.25V68.75H35.4167V64.5833Z" fill="black"/>
<path d="M43.75 64.5833H39.5833V68.75H43.75V64.5833Z" fill="black"/>
<path d="M52.0833 64.5833H47.9167L47.9167 68.75H52.0833L52.0833 64.5833Z" fill="black"/>
<path d="M68.75 64.5833H64.5833V68.75H68.75V64.5833Z" fill="black"/>
<path d="M72.9167 64.5833H68.75V68.75H72.9167V64.5833Z" fill="black"/>
<path d="M77.0833 64.5833H72.9167V68.75H77.0833V64.5833Z" fill="black"/>
<path d="M81.25 64.5833H77.0833V68.75H81.25V64.5833Z" fill="black"/>
<path d="M93.75 64.5833H89.5833V68.75H93.75V64.5833Z" fill="black"/>
<path d="M10.4167 68.75H6.25V72.9167H10.4167V68.75Z" fill="black"/>
<path d="M35.4167 68.75H31.25V72.9167H35.4167V68.75Z" fill="black"/>
<path d="M52.0833 68.75H47.9167V72.9167H52.0833V68.75Z" fill="black"/>
<path d="M64.5833 68.75H60.4167V72.9167H64.5833V68.75Z" fill="black"/>
<path d="M72.9167 68.75H68.75V72.9167H72.9167V68.75Z" fill="black"/>
<path d="M10.4167 72.9167H6.25V77.0833H10.4167V72.9167Z" fill="black"/>
<path d="M18.75 72.9167H14.5833V77.0833H18.75V72.9167Z" fill="black"/>
<path d="M22.9167 72.9167H18.75V77.0833H22.9167V72.9167Z" fill="black"/>
<path d="M27.0833 72.9167H22.9167V77.0833H27.0833V72.9167Z" fill="black"/>
<path d="M35.4167 72.9167H31.25V77.0833H35.4167V72.9167Z" fill="black"/>
<path d="M60.4167 72.9167H56.25V77.0833H60.4167V72.9167Z" fill="black"/>
<path d="M64.5833 72.9167H60.4167V77.0833H64.5833V72.9167Z" fill="black"/>
<path d="M77.0833 72.9167H72.9167V77.0833H77.0833V72.9167Z" fill="black"/>
<path d="M81.25 72.9167H77.0833V77.0833H81.25V72.9167Z" fill="black"/>
<path d="M85.4167 72.9167H81.25V77.0833H85.4167V72.9167Z" fill="black"/>
<path d="M89.5833 72.9167H85.4167V77.0833H89.5833V72.9167Z" fill="black"/>
<path d="M93.75 72.9167H89.5833V77.0833H93.75V72.9167Z" fill="black"/>
<path d="M10.4167 77.0833H6.25V81.25H10.4167V77.0833Z" fill="black"/>
<path d="M18.75 77.0833H14.5833V81.25H18.75V77.0833Z" fill="black"/>
<path d="M22.9167 77.0833H18.75V81.25H22.9167V77.0833Z" fill="black"/>
<path d="M27.0833 77.0833H22.9167V81.25H27.0833V77.0833Z" fill="black"/>
<path d="M35.4167 77.0833H31.25V81.25H35.4167V77.0833Z" fill="black"/>
<path d="M43.75 77.0833H39.5833V81.25H43.75V77.0833Z" fill="black"/>
<path d="M47.9167 77.0833H43.75V81.25H47.9167V77.0833Z" fill="black"/>
<path d="M52.0833 77.0833H47.9167V81.25H52.0833V77.0833Z" fill="black"/>
<path d="M56.25 77.0833H52.0833V81.25H56.25V77.0833Z" fill="black"/>
<path d="M60.4167 77.0833H56.25V81.25H60.4167V77.0833Z" fill="black"/>
<path d="M72.9167 77.0833H68.75V81.25H72.9167V77.0833Z" fill="black"/>
<path d="M81.25 77.0833H77.0833V81.25H81.25V77.0833Z" fill="black"/>
<path d="M89.5833 77.0833H85.4167V81.25H89.5833V77.0833Z" fill="black"/>
<path d="M10.4167 81.25H6.25V85.4167H10.4167V81.25Z" fill="black"/>
<path d="M18.75 81.25H14.5833V85.4167H18.75V81.25Z" fill="black"/>
<path d="M22.9167 81.25H18.75V85.4167H22.9167V81.25Z" fill="black"/>
<path d="M27.0833 81.25H22.9167V85.4167H27.0833V81.25Z" fill="black"/>
<path d="M35.4167 81.25H31.25V85.4167H35.4167V81.25Z" fill="black"/>
<path d="M43.75 81.25H39.5833V85.4167H43.75V81.25Z" fill="black"/>
<path d="M47.9167 81.25H43.75V85.4167H47.9167V81.25Z" fill="black"/>
<path d="M52.0833 81.25H47.9167V85.4167H52.0833V81.25Z" fill="black"/>
<path d="M56.25 81.25H52.0833V85.4167H56.25V81.25Z" fill="black"/>
<path d="M68.75 81.25H64.5833V85.4167H68.75V81.25Z" fill="black"/>
<path d="M72.9167 81.25H68.75V85.4167H72.9167V81.25Z" fill="black"/>
<path d="M89.5833 81.25H85.4167V85.4167H89.5833V81.25Z" fill="black"/>
<path d="M10.4167 85.4167H6.25V89.5833H10.4167V85.4167Z" fill="black"/>
<path d="M35.4167 85.4167H31.25V89.5833H35.4167V85.4167Z" fill="black"/>
<path d="M43.75 85.4167H39.5833V89.5833H43.75V85.4167Z" fill="black"/>
<path d="M52.0833 85.4167H47.9167L47.9167 89.5833H52.0833V85.4167Z" fill="black"/>
<path d="M56.25 85.4167H52.0833V89.5833H56.25V85.4167Z" fill="black"/>
<path d="M68.75 85.4167H64.5833V89.5833H68.75V85.4167Z" fill="black"/>
<path d="M72.9167 85.4167H68.75V89.5833H72.9167V85.4167Z" fill="black"/>
<path d="M85.4167 85.4167H81.25V89.5833H85.4167V85.4167Z" fill="black"/>
<path d="M93.75 85.4167H89.5833V89.5833H93.75V85.4167Z" fill="black"/>
<path d="M10.4167 89.5833H6.25V93.75H10.4167V89.5833Z" fill="black"/>
<path d="M14.5833 89.5833H10.4167V93.75H14.5833V89.5833Z" fill="black"/>
<path d="M18.75 89.5833H14.5833V93.75H18.75V89.5833Z" fill="black"/>
<path d="M22.9167 89.5833H18.75V93.75H22.9167V89.5833Z" fill="black"/>
<path d="M27.0833 89.5833H22.9167V93.75H27.0833V89.5833Z" fill="black"/>
<path d="M31.25 89.5833H27.0833V93.75H31.25V89.5833Z" fill="black"/>
<path d="M35.4167 89.5833H31.25V93.75H35.4167V89.5833Z" fill="black"/>
<path d="M64.5833 89.5833H60.4167V93.75H64.5833V89.5833Z" fill="black"/>
<path d="M77.0833 89.5833H72.9167V93.75H77.0833V89.5833Z" fill="black"/>
<path d="M85.4167 89.5833H81.25V93.75H85.4167V89.5833Z" fill="black"/>
</g>
<g clip-path="url(#clip1_1_474)">
<path d="M100 0H0V100H100V0Z" fill="white"/>
<path d="M10.4167 6.25H6.25V10.4167H10.4167V6.25Z" fill="black"/>
<path d="M14.5833 6.25H10.4167V10.4167H14.5833V6.25Z" fill="black"/>
<path d="M18.75 6.25H14.5833V10.4167H18.75V6.25Z" fill="black"/>
<path d="M22.9167 6.25H18.75V10.4167H22.9167V6.25Z" fill="black"/>
<path d="M27.0833 6.25H22.9167V10.4167H27.0833V6.25Z" fill="black"/>
<path d="M31.25 6.25H27.0833V10.4167H31.25V6.25Z" fill="black"/>
<path d="M35.4167 6.25H31.25V10.4167H35.4167V6.25Z" fill="black"/>
<path d="M43.75 6.25H39.5833V10.4167H43.75V6.25Z" fill="black"/>
<path d="M52.0833 6.25H47.9167V10.4167H52.0833V6.25Z" fill="black"/>
<path d="M56.25 6.25H52.0833V10.4167H56.25V6.25Z" fill="black"/>
<path d="M60.4167 6.25H56.25V10.4167H60.4167V6.25Z" fill="black"/>
<path d="M68.75 6.25H64.5833V10.4167H68.75V6.25Z" fill="black"/>
<path d="M72.9167 6.25H68.75V10.4167H72.9167V6.25Z" fill="black"/>
<path d="M77.0833 6.25H72.9167V10.4167H77.0833V6.25Z" fill="black"/>
<path d="M81.25 6.25H77.0833V10.4167H81.25V6.25Z" fill="black"/>
<path d="M85.4167 6.25H81.25V10.4167H85.4167V6.25Z" fill="black"/>
<path d="M89.5833 6.25H85.4167V10.4167H89.5833V6.25Z" fill="black"/>
<path d="M93.75 6.25H89.5833V10.4167H93.75V6.25Z" fill="black"/>
<path d="M10.4167 10.4167H6.25V14.5833H10.4167V10.4167Z" fill="black"/>
<path d="M35.4167 10.4167H31.25V14.5833H35.4167V10.4167Z" fill="black"/>
<path d="M68.75 10.4167H64.5833V14.5833H68.75V10.4167Z" fill="black"/>
<path d="M93.75 10.4167H89.5833V14.5833H93.75V10.4167Z" fill="black"/>
<path d="M10.4167 14.5833H6.25V18.75H10.4167V14.5833Z" fill="black"/>
<path d="M18.75 14.5833H14.5833V18.75H18.75V14.5833Z" fill="black"/>
<path d="M22.9167 14.5833H18.75V18.75H22.9167V14.5833Z" fill="black"/>
<path d="M27.0833 14.5833H22.9167V18.75H27.0833V14.5833Z" fill="black"/>
<path d="M35.4167 14.5833H31.25V18.75H35.4167V14.5833Z" fill="black"/>
<path d="M52.0833 14.5833H47.9167V18.75H52.0833V14.5833Z" fill="black"/>
<path d="M56.25 14.5833H52.0833V18.75H56.25V14.5833Z" fill="black"/>
<path d="M68.75 14.5833H64.5833V18.75H68.75V14.5833Z" fill="black"/>
<path d="M77.0833 14.5833H72.9167V18.75H77.0833V14.5833Z" fill="black"/>
<path d="M81.25 14.5833H77.0833V18.75H81.25V14.5833Z" fill="black"/>
<path d="M85.4167 14.5833H81.25V18.75H85.4167V14.5833Z" fill="black"/>
<path d="M93.75 14.5833H89.5833V18.75H93.75V14.5833Z" fill="black"/>
<path d="M10.4167 18.75H6.25V22.9167H10.4167V18.75Z" fill="black"/>
<path d="M18.75 18.75H14.5833V22.9167H18.75V18.75Z" fill="black"/>
<path d="M22.9167 18.75H18.75V22.9167H22.9167V18.75Z" fill="black"/>
<path d="M27.0833 18.75H22.9167V22.9167H27.0833V18.75Z" fill="black"/>
<path d="M35.4167 18.75H31.25V22.9167H35.4167V18.75Z" fill="black"/>
<path d="M60.4167 18.75H56.25V22.9167H60.4167V18.75Z" fill="black"/>
<path d="M68.75 18.75H64.5833V22.9167H68.75V18.75Z" fill="black"/>
<path d="M77.0833 18.75H72.9167V22.9167H77.0833V18.75Z" fill="black"/>
<path d="M81.25 18.75H77.0833V22.9167H81.25V18.75Z" fill="black"/>
<path d="M85.4167 18.75H81.25V22.9167H85.4167V18.75Z" fill="black"/>
<path d="M93.75 18.75H89.5833V22.9167H93.75V18.75Z" fill="black"/>
<path d="M10.4167 22.9167H6.25V27.0833H10.4167V22.9167Z" fill="black"/>
<path d="M18.75 22.9167H14.5833V27.0833H18.75V22.9167Z" fill="black"/>
<path d="M22.9167 22.9167H18.75V27.0833H22.9167V22.9167Z" fill="black"/>
<path d="M27.0833 22.9167H22.9167V27.0833H27.0833V22.9167Z" fill="black"/>
<path d="M35.4167 22.9167H31.25V27.0833H35.4167V22.9167Z" fill="black"/>
<path d="M47.9167 22.9167H43.75V27.0833H47.9167V22.9167Z" fill="black"/>
<path d="M56.25 22.9167H52.0833V27.0833H56.25V22.9167Z" fill="black"/>
<path d="M60.4167 22.9167H56.25V27.0833H60.4167V22.9167Z" fill="black"/>
<path d="M68.75 22.9167H64.5833V27.0833H68.75V22.9167Z" fill="black"/>
<path d="M77.0833 22.9167H72.9167V27.0833H77.0833V22.9167Z" fill="black"/>
<path d="M81.25 22.9167H77.0833V27.0833H81.25V22.9167Z" fill="black"/>
<path d="M85.4167 22.9167H81.25V27.0833H85.4167V22.9167Z" fill="black"/>
<path d="M93.75 22.9167H89.5833V27.0833H93.75V22.9167Z" fill="black"/>
<path d="M10.4167 27.0833H6.25V31.25H10.4167V27.0833Z" fill="black"/>
<path d="M35.4167 27.0833H31.25V31.25H35.4167V27.0833Z" fill="black"/>
<path d="M47.9167 27.0833H43.75V31.25H47.9167V27.0833Z" fill="black"/>
<path d="M52.0833 27.0833H47.9167V31.25H52.0833L52.0833 27.0833Z" fill="black"/>
<path d="M68.75 27.0833H64.5833V31.25H68.75V27.0833Z" fill="black"/>
<path d="M93.75 27.0833H89.5833V31.25H93.75V27.0833Z" fill="black"/>
<path d="M10.4167 31.25H6.25V35.4167H10.4167V31.25Z" fill="black"/>
<path d="M14.5833 31.25H10.4167V35.4167H14.5833V31.25Z" fill="black"/>
<path d="M18.75 31.25H14.5833V35.4167H18.75V31.25Z" fill="black"/>
<path d="M22.9167 31.25H18.75V35.4167H22.9167V31.25Z" fill="black"/>
<path d="M27.0833 31.25H22.9167V35.4167H27.0833V31.25Z" fill="black"/>
<path d="M31.25 31.25H27.0833V35.4167H31.25V31.25Z" fill="black"/>
<path d="M35.4167 31.25H31.25V35.4167H35.4167V31.25Z" fill="black"/>
<path d="M43.75 31.25H39.5833V35.4167H43.75L43.75 31.25Z" fill="black"/>
<path d="M52.0833 31.25H47.9167L47.9167 35.4167H52.0833V31.25Z" fill="black"/>
<path d="M60.4167 31.25H56.25V35.4167H60.4167V31.25Z" fill="black"/>
<path d="M68.75 31.25H64.5833V35.4167H68.75V31.25Z" fill="black"/>
<path d="M72.9167 31.25H68.75V35.4167H72.9167V31.25Z" fill="black"/>
<path d="M77.0833 31.25H72.9167V35.4167H77.0833V31.25Z" fill="black"/>
<path d="M81.25 31.25H77.0833V35.4167H81.25V31.25Z" fill="black"/>
<path d="M85.4167 31.25H81.25V35.4167H85.4167V31.25Z" fill="black"/>
<path d="M89.5833 31.25H85.4167V35.4167H89.5833V31.25Z" fill="black"/>
<path d="M93.75 31.25H89.5833V35.4167H93.75V31.25Z" fill="black"/>
<path d="M47.9167 35.4167H43.75L43.75 39.5833H47.9167L47.9167 35.4167Z" fill="black"/>
<path d="M52.0833 35.4167H47.9167L47.9167 39.5833H52.0833V35.4167Z" fill="black"/>
<path d="M60.4167 35.4167H56.25V39.5833H60.4167V35.4167Z" fill="black"/>
<path d="M14.5833 39.5833H10.4167V43.75H14.5833V39.5833Z" fill="black"/>
<path d="M18.75 39.5833H14.5833V43.75H18.75V39.5833Z" fill="black"/>
<path d="M22.9167 39.5833H18.75V43.75H22.9167V39.5833Z" fill="black"/>
<path d="M35.4167 39.5833H31.25V43.75H35.4167V39.5833Z" fill="black"/>
<path d="M39.5833 39.5833H35.4167V43.75H39.5833V39.5833Z" fill="black"/>
<path d="M43.75 39.5833L39.5833 39.5833V43.75H43.75L43.75 39.5833Z" fill="black"/>
<path d="M47.9167 39.5833H43.75L43.75 43.75H47.9167V39.5833Z" fill="black"/>
<path d="M60.4167 39.5833H56.25V43.75H60.4167V39.5833Z" fill="black"/>
<path d="M64.5833 39.5833L60.4167 39.5833V43.75H64.5833V39.5833Z" fill="black"/>
<path d="M93.75 39.5833H89.5833V43.75H93.75V39.5833Z" fill="black"/>
<path d="M10.4167 43.75L6.25 43.75V47.9167H10.4167V43.75Z" fill="black"/>
<path d="M14.5833 43.75H10.4167V47.9167H14.5833V43.75Z" fill="black"/>
<path d="M18.75 43.75H14.5833V47.9167H18.75V43.75Z" fill="black"/>
<path d="M22.9167 43.75H18.75V47.9167H22.9167V43.75Z" fill="black"/>
<path d="M31.25 43.75L27.0833 43.75V47.9167H31.25V43.75Z" fill="black"/>
<path d="M43.75 43.75H39.5833L39.5833 47.9167H43.75V43.75Z" fill="black"/>
<path d="M60.4167 43.75H56.25V47.9167H60.4167V43.75Z" fill="black"/>
<path d="M64.5833 43.75H60.4167V47.9167H64.5833V43.75Z" fill="black"/>
<path d="M68.75 43.75L64.5833 43.75V47.9167H68.75V43.75Z" fill="black"/>
<path d="M77.0833 43.75H72.9167V47.9167H77.0833V43.75Z" fill="black"/>
<path d="M85.4167 43.75H81.25V47.9167H85.4167V43.75Z" fill="black"/>
<path d="M89.5833 43.75L85.4167 43.75V47.9167H89.5833V43.75Z" fill="black"/>
<path d="M93.75 43.75H89.5833V47.9167H93.75V43.75Z" fill="black"/>
<path d="M14.5833 47.9167H10.4167V52.0833H14.5833V47.9167Z" fill="black"/>
<path d="M18.75 47.9167H14.5833V52.0833H18.75V47.9167Z" fill="black"/>
<path d="M22.9167 47.9167H18.75V52.0833H22.9167V47.9167Z" fill="black"/>
<path d="M35.4167 47.9167L31.25 47.9167V52.0833H35.4167V47.9167Z" fill="black"/>
<path d="M39.5833 47.9167L35.4167 47.9167V52.0833H39.5833L39.5833 47.9167Z" fill="black"/>
<path d="M43.75 47.9167H39.5833L39.5833 52.0833H43.75V47.9167Z" fill="black"/>
<path d="M47.9167 47.9167L43.75 47.9167V52.0833H47.9167V47.9167Z" fill="black"/>
<path d="M52.0833 47.9167H47.9167V52.0833H52.0833V47.9167Z" fill="black"/>
<path d="M68.75 47.9167H64.5833V52.0833H68.75V47.9167Z" fill="black"/>
<path d="M72.9167 47.9167H68.75V52.0833H72.9167V47.9167Z" fill="black"/>
<path d="M77.0833 47.9167H72.9167V52.0833H77.0833V47.9167Z" fill="black"/>
<path d="M81.25 47.9167H77.0833V52.0833H81.25V47.9167Z" fill="black"/>
<path d="M93.75 47.9167H89.5833V52.0833H93.75V47.9167Z" fill="black"/>
<path d="M18.75 52.0833H14.5833V56.25H18.75V52.0833Z" fill="black"/>
<path d="M31.25 52.0833L27.0833 52.0833V56.25H31.25V52.0833Z" fill="black"/>
<path d="M43.75 52.0833H39.5833L39.5833 56.25H43.75V52.0833Z" fill="black"/>
<path d="M47.9167 52.0833H43.75V56.25H47.9167V52.0833Z" fill="black"/>
<path d="M56.25 52.0833L52.0833 52.0833L52.0833 56.25H56.25V52.0833Z" fill="black"/>
<path d="M60.4167 52.0833H56.25V56.25H60.4167V52.0833Z" fill="black"/>
<path d="M68.75 52.0833H64.5833V56.25H68.75V52.0833Z" fill="black"/>
<path d="M77.0833 52.0833H72.9167V56.25H77.0833V52.0833Z" fill="black"/>
<path d="M85.4167 52.0833L81.25 52.0833V56.25H85.4167V52.0833Z" fill="black"/>
<path d="M89.5833 52.0833L85.4167 52.0833V56.25H89.5833V52.0833Z" fill="black"/>
<path d="M93.75 52.0833H89.5833V56.25H93.75V52.0833Z" fill="black"/>
<path d="M18.75 56.25H14.5833V60.4167H18.75V56.25Z" fill="black"/>
<path d="M22.9167 56.25H18.75V60.4167H22.9167V56.25Z" fill="black"/>
<path d="M27.0833 56.25H22.9167V60.4167H27.0833V56.25Z" fill="black"/>
<path d="M35.4167 56.25H31.25V60.4167H35.4167V56.25Z" fill="black"/>
<path d="M47.9167 56.25H43.75L43.75 60.4167H47.9167V56.25Z" fill="black"/>
<path d="M52.0833 56.25H47.9167V60.4167H52.0833L52.0833 56.25Z" fill="black"/>
<path d="M56.25 56.25H52.0833L52.0833 60.4167H56.25V56.25Z" fill="black"/>
<path d="M60.4167 56.25H56.25V60.4167H60.4167V56.25Z" fill="black"/>
<path d="M64.5833 56.25H60.4167V60.4167H64.5833V56.25Z" fill="black"/>
<path d="M81.25 56.25H77.0833V60.4167H81.25V56.25Z" fill="black"/>
<path d="M85.4167 56.25H81.25V60.4167H85.4167V56.25Z" fill="black"/>
<path d="M89.5833 56.25H85.4167V60.4167H89.5833V56.25Z" fill="black"/>
<path d="M43.75 60.4167H39.5833V64.5833H43.75L43.75 60.4167Z" fill="black"/>
<path d="M47.9167 60.4167H43.75L43.75 64.5833H47.9167V60.4167Z" fill="black"/>
<path d="M56.25 60.4167H52.0833L52.0833 64.5833H56.25V60.4167Z" fill="black"/>
<path d="M60.4167 60.4167H56.25V64.5833H60.4167V60.4167Z" fill="black"/>
<path d="M68.75 60.4167H64.5833V64.5833H68.75V60.4167Z" fill="black"/>
<path d="M72.9167 60.4167H68.75V64.5833H72.9167V60.4167Z" fill="black"/>
<path d="M81.25 60.4167H77.0833V64.5833H81.25V60.4167Z" fill="black"/>
<path d="M89.5833 60.4167H85.4167V64.5833H89.5833V60.4167Z" fill="black"/>
<path d="M10.4167 64.5833H6.25V68.75H10.4167V64.5833Z" fill="black"/>
<path d="M14.5833 64.5833H10.4167V68.75H14.5833V64.5833Z" fill="black"/>
<path d="M18.75 64.5833H14.5833V68.75H18.75V64.5833Z" fill="black"/>
<path d="M22.9167 64.5833H18.75V68.75H22.9167V64.5833Z" fill="black"/>
<path d="M27.0833 64.5833H22.9167V68.75H27.0833V64.5833Z" fill="black"/>
<path d="M31.25 64.5833H27.0833V68.75H31.25V64.5833Z" fill="black"/>
<path d="M35.4167 64.5833H31.25V68.75H35.4167V64.5833Z" fill="black"/>
<path d="M43.75 64.5833H39.5833V68.75H43.75V64.5833Z" fill="black"/>
<path d="M52.0833 64.5833H47.9167L47.9167 68.75H52.0833L52.0833 64.5833Z" fill="black"/>
<path d="M68.75 64.5833H64.5833V68.75H68.75V64.5833Z" fill="black"/>
<path d="M72.9167 64.5833H68.75V68.75H72.9167V64.5833Z" fill="black"/>
<path d="M77.0833 64.5833H72.9167V68.75H77.0833V64.5833Z" fill="black"/>
<path d="M81.25 64.5833H77.0833V68.75H81.25V64.5833Z" fill="black"/>
<path d="M93.75 64.5833H89.5833V68.75H93.75V64.5833Z" fill="black"/>
<path d="M10.4167 68.75H6.25V72.9167H10.4167V68.75Z" fill="black"/>
<path d="M35.4167 68.75H31.25V72.9167H35.4167V68.75Z" fill="black"/>
<path d="M52.0833 68.75H47.9167V72.9167H52.0833V68.75Z" fill="black"/>
<path d="M64.5833 68.75H60.4167V72.9167H64.5833V68.75Z" fill="black"/>
<path d="M72.9167 68.75H68.75V72.9167H72.9167V68.75Z" fill="black"/>
<path d="M10.4167 72.9167H6.25V77.0833H10.4167V72.9167Z" fill="black"/>
<path d="M18.75 72.9167H14.5833V77.0833H18.75V72.9167Z" fill="black"/>
<path d="M22.9167 72.9167H18.75V77.0833H22.9167V72.9167Z" fill="black"/>
<path d="M27.0833 72.9167H22.9167V77.0833H27.0833V72.9167Z" fill="black"/>
<path d="M35.4167 72.9167H31.25V77.0833H35.4167V72.9167Z" fill="black"/>
<path d="M60.4167 72.9167H56.25V77.0833H60.4167V72.9167Z" fill="black"/>
<path d="M64.5833 72.9167H60.4167V77.0833H64.5833V72.9167Z" fill="black"/>
<path d="M77.0833 72.9167H72.9167V77.0833H77.0833V72.9167Z" fill="black"/>
<path d="M81.25 72.9167H77.0833V77.0833H81.25V72.9167Z" fill="black"/>
<path d="M85.4167 72.9167H81.25V77.0833H85.4167V72.9167Z" fill="black"/>
<path d="M89.5833 72.9167H85.4167V77.0833H89.5833V72.9167Z" fill="black"/>
<path d="M93.75 72.9167H89.5833V77.0833H93.75V72.9167Z" fill="black"/>
<path d="M10.4167 77.0833H6.25V81.25H10.4167V77.0833Z" fill="black"/>
<path d="M18.75 77.0833H14.5833V81.25H18.75V77.0833Z" fill="black"/>
<path d="M22.9167 77.0833H18.75V81.25H22.9167V77.0833Z" fill="black"/>
<path d="M27.0833 77.0833H22.9167V81.25H27.0833V77.0833Z" fill="black"/>
<path d="M35.4167 77.0833H31.25V81.25H35.4167V77.0833Z" fill="black"/>
<path d="M43.75 77.0833H39.5833V81.25H43.75V77.0833Z" fill="black"/>
<path d="M47.9167 77.0833H43.75V81.25H47.9167V77.0833Z" fill="black"/>
<path d="M52.0833 77.0833H47.9167V81.25H52.0833V77.0833Z" fill="black"/>
<path d="M56.25 77.0833H52.0833V81.25H56.25V77.0833Z" fill="black"/>
<path d="M60.4167 77.0833H56.25V81.25H60.4167V77.0833Z" fill="black"/>
<path d="M72.9167 77.0833H68.75V81.25H72.9167V77.0833Z" fill="black"/>
<path d="M81.25 77.0833H77.0833V81.25H81.25V77.0833Z" fill="black"/>
<path d="M89.5833 77.0833H85.4167V81.25H89.5833V77.0833Z" fill="black"/>
<path d="M10.4167 81.25H6.25V85.4167H10.4167V81.25Z" fill="black"/>
<path d="M18.75 81.25H14.5833V85.4167H18.75V81.25Z" fill="black"/>
<path d="M22.9167 81.25H18.75V85.4167H22.9167V81.25Z" fill="black"/>
<path d="M27.0833 81.25H22.9167V85.4167H27.0833V81.25Z" fill="black"/>
<path d="M35.4167 81.25H31.25V85.4167H35.4167V81.25Z" fill="black"/>
<path d="M43.75 81.25H39.5833V85.4167H43.75V81.25Z" fill="black"/>
<path d="M47.9167 81.25H43.75V85.4167H47.9167V81.25Z" fill="black"/>
<path d="M52.0833 81.25H47.9167V85.4167H52.0833V81.25Z" fill="black"/>
<path d="M56.25 81.25H52.0833V85.4167H56.25V81.25Z" fill="black"/>
<path d="M68.75 81.25H64.5833V85.4167H68.75V81.25Z" fill="black"/>
<path d="M72.9167 81.25H68.75V85.4167H72.9167V81.25Z" fill="black"/>
<path d="M89.5833 81.25H85.4167V85.4167H89.5833V81.25Z" fill="black"/>
<path d="M10.4167 85.4167H6.25V89.5833H10.4167V85.4167Z" fill="black"/>
<path d="M35.4167 85.4167H31.25V89.5833H35.4167V85.4167Z" fill="black"/>
<path d="M43.75 85.4167H39.5833V89.5833H43.75V85.4167Z" fill="black"/>
<path d="M52.0833 85.4167H47.9167L47.9167 89.5833H52.0833V85.4167Z" fill="black"/>
<path d="M56.25 85.4167H52.0833V89.5833H56.25V85.4167Z" fill="black"/>
<path d="M68.75 85.4167H64.5833V89.5833H68.75V85.4167Z" fill="black"/>
<path d="M72.9167 85.4167H68.75V89.5833H72.9167V85.4167Z" fill="black"/>
<path d="M85.4167 85.4167H81.25V89.5833H85.4167V85.4167Z" fill="black"/>
<path d="M93.75 85.4167H89.5833V89.5833H93.75V85.4167Z" fill="black"/>
<path d="M10.4167 89.5833H6.25V93.75H10.4167V89.5833Z" fill="black"/>
<path d="M14.5833 89.5833H10.4167V93.75H14.5833V89.5833Z" fill="black"/>
<path d="M18.75 89.5833H14.5833V93.75H18.75V89.5833Z" fill="black"/>
<path d="M22.9167 89.5833H18.75V93.75H22.9167V89.5833Z" fill="black"/>
<path d="M27.0833 89.5833H22.9167V93.75H27.0833V89.5833Z" fill="black"/>
<path d="M31.25 89.5833H27.0833V93.75H31.25V89.5833Z" fill="black"/>
<path d="M35.4167 89.5833H31.25V93.75H35.4167V89.5833Z" fill="black"/>
<path d="M64.5833 89.5833H60.4167V93.75H64.5833V89.5833Z" fill="black"/>
<path d="M77.0833 89.5833H72.9167V93.75H77.0833V89.5833Z" fill="black"/>
<path d="M85.4167 89.5833H81.25V93.75H85.4167V89.5833Z" fill="black"/>
</g>
<defs>
<clipPath id="clip0_1_474">
<rect width="100" height="100" fill="white"/>
</clipPath>
<clipPath id="clip1_1_474">
<rect width="100" height="100" fill="white"/>
</clipPath>
</defs>
</svg>
